<?xml version="1.0" encoding="UTF-8"?>
<svg version="1.1" xmlns="http://www.w3.org/2000/svg" width="500" height="500">
<path d="M0 0 C1.22517334 0.01885254 1.22517334 0.01885254 2.47509766 0.03808594 C13.79624642 0.26199564 22.79286369 1.80321599 33 7 C33 7.66 33 8.32 33 9 C33.556875 9.226875 34.11375 9.45375 34.6875 9.6875 C37.66159588 11.37550036 39.72008865 13.46676517 42 16 C42 16.66 42 17.32 42 18 C42.66 18 43.32 18 44 18 C60.12275821 37.2307598 67.32585026 66.78165218 73.75390625 90.5 C74.52580834 93.32970508 75.3377322 96.13865897 76.21484375 98.9375 C79.3995043 109.1467721 81.70628387 119.46544087 83.85717773 129.94091797 C85.1451467 136.1854289 86.60201163 142.31653891 88.32617188 148.45410156 C89.35186808 152.3294494 90.04872002 156.23264907 90.6875 160.1875 C90.81705078 160.92935547 90.94660156 161.67121094 91.08007812 162.43554688 C93.1059882 174.68747922 93.1059882 174.68747922 90.625 179.875 C87.53257924 183.91893484 87.53257924 183.91893484 84.79296875 184.3359375 C80.6983385 184.39732626 77.80388738 184.4194195 74.125 182.5 C71.34833357 179.23333362 69.6810307 175.92466442 68 172 C67.6596875 171.22269531 67.319375 170.44539062 66.96875 169.64453125 C64.78200622 164.43444853 63.14927395 159.22591013 61.80859375 153.73828125 C61.01686436 150.84990277 61.01686436 150.84990277 59.53515625 147.63671875 C57.48547542 142.78111352 56.32828172 137.82406962 55.0625 132.71875 C53.99062123 128.96717431 52.55173585 125.57573914 51 122 C50.11819333 119.41608585 49.34055442 116.80424654 48.5625 114.1875 C46.66737172 107.98138172 44.53421349 101.97764861 42 96 C41.62101563 95.05898437 41.24203125 94.11796875 40.8515625 93.1484375 C37.49037365 84.86321403 33.97341874 76.46012811 29 69 C28.34 69 27.68 69 27 69 C26.22112469 74.49805687 25.84365462 79.8062543 25.8828125 85.35546875 C25.88588409 86.13117722 25.88895569 86.90688568 25.89212036 87.70610046 C25.95916443 96.25486441 26.38145036 104.77930106 26.875 113.3125 C26.92079193 114.1197049 26.96658386 114.92690979 27.01376343 115.75857544 C28.17072921 136.03734378 30.30729969 155.7646813 33.76953125 175.79296875 C34.80840399 181.80928037 35.75175892 187.83269663 36.625 193.875 C37.43161992 199.42886781 38.34546009 204.93058218 39.4375 210.4375 C41.16527324 219.33869824 42.3128445 228.31076197 43.51708984 237.29541016 C44.40048688 243.83085748 45.34060973 250.33176948 46.5625 256.8125 C47.98656186 264.50243405 48.94155108 272.22064984 49.87304688 279.98413086 C50.63925081 286.30681766 51.5269722 292.59109506 52.5625 298.875 C58.5565053 335.7569976 58.5565053 335.7569976 54.6171875 343.8359375 C52.56357617 346.58400677 51.32880888 347.18629116 48 348 C41.89420431 348.60057007 36.93686845 347.87896807 32 344 C28.37833682 339.46452199 27.05931093 335.36118816 25.9375 329.8125 C25.63643776 328.40184594 25.33300744 326.99169542 25.02734375 325.58203125 C24.86838623 324.8456543 24.70942871 324.10927734 24.5456543 323.35058594 C23.95754696 320.81711954 23.27768152 318.32133643 22.578125 315.81640625 C20.7729405 309.30017195 19.28097489 302.72407234 17.8125 296.125 C17.53986328 294.92875 17.26722656 293.7325 16.98632812 292.5 C16.72916016 291.34757812 16.47199219 290.19515625 16.20703125 289.0078125 C15.9747583 287.97285645 15.74248535 286.93790039 15.50317383 285.87158203 C15 283 15 283 15 278 C-4.14 278.33 -23.28 278.66 -43 279 C-44.36125 285.6515625 -44.36125 285.6515625 -45.75 292.4375 C-55.09227618 337.62494569 -55.09227618 337.62494569 -63 346 C-67.70537569 348.35268785 -72.82391654 348.76716951 -78 348 C-83.64028777 345.07913669 -83.64028777 345.07913669 -85 341 C-85.27458907 333.6232017 -84.53317936 326.44800289 -83.6875 319.125 C-83.55214844 317.9297168 -83.41679687 316.73443359 -83.27734375 315.50292969 C-82.40335515 307.97084739 -81.37350962 300.4853597 -80.12573242 293.00683594 C-79.09816568 286.81339273 -78.28241532 280.60377931 -77.5 274.375 C-76.59623236 267.2173943 -75.53606451 260.14746342 -74.1953125 253.05859375 C-72.59345638 244.25664207 -71.59621731 235.35689325 -70.53344727 226.4765625 C-69.57573077 218.69170266 -68.28667575 211.09565327 -66.69140625 203.41992188 C-65.79506265 198.98631271 -65.12121828 194.54138966 -64.5 190.0625 C-63.64512405 184.10720348 -62.68464904 178.21106503 -61.5 172.3125 C-60.19503104 165.52802789 -59.26406166 158.7336695 -58.4375 151.875 C-58.32277344 150.92923096 -58.20804688 149.98346191 -58.08984375 149.0090332 C-57.70191648 145.67500769 -57.34949973 142.33828057 -57 139 C-56.91568726 138.24672424 -56.83137451 137.49344849 -56.74450684 136.71734619 C-55.01947947 121.15723155 -54.75682126 105.76918967 -54.875 90.125 C-54.8850661 87.76823304 -54.89418543 85.41146184 -54.90234375 83.0546875 C-54.92403225 77.36969664 -54.95721285 71.68486927 -55 66 C-58.54605152 69.47069701 -61.41588668 72.83540227 -64.125 77 C-64.78757813 78.010625 -65.45015625 79.02125 -66.1328125 80.0625 C-67.34460735 81.96892203 -68.5097079 83.90614738 -69.6171875 85.875 C-70.07351562 86.57625 -70.52984375 87.2775 -71 88 C-71.66 88 -72.32 88 -73 88 C-73.37125 89.051875 -73.37125 89.051875 -73.75 90.125 C-75.17180238 93.39514548 -76.87246288 96.141122 -79 99 C-79.66 99 -80.32 99 -81 99 C-81.37898438 100.10794922 -81.37898438 100.10794922 -81.765625 101.23828125 C-84.22094 106.73166007 -88.83058684 110.93656218 -94.1875 113.5625 C-99.41685003 114.37595445 -102.7083197 112.97116328 -107 110 C-109.3125 107.9375 -109.3125 107.9375 -111 106 C-111 105.34 -111 104.68 -111 104 C-111.66 104 -112.32 104 -113 104 C-113.66 102.35 -114.32 100.7 -115 99 C-115.66 99 -116.32 99 -117 99 C-117.66 97.35 -118.32 95.7 -119 94 C-119.66 94 -120.32 94 -121 94 C-122.49817893 92.00742202 -123.88422086 90.0180265 -125.25 87.9375 C-128.56719658 83.00163496 -131.99690055 78.41367375 -136 74 C-135.66226563 75.00160156 -135.32453125 76.00320312 -134.9765625 77.03515625 C-134.52595983 78.3775767 -134.07544362 79.72002617 -133.625 81.0625 C-133.40328125 81.71927734 -133.1815625 82.37605469 -132.953125 83.05273438 C-128.68458137 95.79559257 -128.68458137 95.79559257 -129 101 C-175.24934019 93.08937007 -175.24934019 93.08937007 -197 88 C-197 87.01 -197 86.02 -197 85 C-196.34 85 -195.68 85 -195 85 C-194.66162109 83.96939453 -194.66162109 83.96939453 -194.31640625 82.91796875 C-192.6669943 79.26185383 -190.43267533 76.42882223 -187.9375 73.3125 C-184.67441696 69.35070369 -184.67441696 69.35070369 -182 65 C-181.34 65 -180.68 65 -180 65 C-179.77183594 64.30519531 -179.54367188 63.61039063 -179.30859375 62.89453125 C-177.44431142 58.77085004 -174.5980584 55.52704085 -171.72070312 52.08007812 C-165.41624522 44.2347393 -164.12851735 35.38017673 -162.4375 25.6875 C-162.12522461 23.94823242 -162.12522461 23.94823242 -161.80664062 22.17382812 C-161.39648257 19.88645763 -160.98933843 17.59854432 -160.58544922 15.31005859 C-159.74120976 10.53683151 -158.87142168 5.76832749 -158 1 C-150.3083689 0.60890011 -143.39953428 1.87483614 -136 4 C-135.505 4.495 -135.505 4.495 -135 5 C-135.44507749 9.71782142 -136.23486953 14.33571112 -137.0625 19 C-137.87863864 23.76383144 -138.1855317 28.17617573 -138 33 C-137.175 33.309375 -136.35 33.61875 -135.5 33.9375 C-129.15101166 37.09687753 -124.2830075 43.40723346 -122 50 C-121.34 50 -120.68 50 -120 50 C-118.79276536 51.53703057 -117.66082023 53.13334569 -116.5625 54.75 C-113.33924066 59.28141944 -109.96041896 63.54499898 -106.25 67.6875 C-105.56079468 68.48075684 -105.56079468 68.48075684 -104.85766602 69.29003906 C-103.38547496 70.95573852 -103.38547496 70.95573852 -101 73 C-99.68 73 -98.36 73 -97 73 C-96.51644043 71.99211426 -96.03288086 70.98422852 -95.53466797 69.94580078 C-93.71678092 66.1600808 -91.89250215 62.37746938 -90.06640625 58.59570312 C-89.28116621 56.9672955 -88.49759685 55.33808105 -87.71582031 53.70800781 C-77.65661365 32.74060773 -77.65661365 32.74060773 -74 28 C-73.34 28 -72.68 28 -72 28 C-71.7215625 27.01 -71.7215625 27.01 -71.4375 26 C-66.46698156 15.62674413 -55.63482788 7.93184467 -45.16015625 3.73828125 C-30.83715324 -1.15692231 -14.94729865 -0.26994161 0 0 Z M-152 9 C-152.52773343 11.64463022 -153.04747257 14.29039393 -153.5625 16.9375 C-153.71396484 17.69224609 -153.86542969 18.44699219 -154.02148438 19.22460938 C-154.39117799 21.14185767 -154.70042238 23.0705525 -155 25 C-153.99163938 26.23267348 -153.99163938 26.23267348 -151.93359375 26.09765625 C-151.10988281 26.08605469 -150.28617188 26.07445312 -149.4375 26.0625 C-148.19806641 26.04896484 -148.19806641 26.04896484 -146.93359375 26.03515625 C-146.29550781 26.02355469 -145.65742188 26.01195312 -145 26 C-143.61470179 20.54538831 -142.7603057 15.63281599 -143 10 C-145.97 9.67 -148.94 9.34 -152 9 Z " fill="#050505" transform="translate(264,140)"/>
<path d="M0 0 C4.72463088 0.46319911 8.17057052 1.09891706 12 4 C12 4.66 12 5.32 12 6 C12.66 6 13.32 6 14 6 C14 6.66 14 7.32 14 8 C14.66 8 15.32 8 16 8 C19.08467498 13.39459439 20.55643705 17.79011871 21 24 C21.43570313 23.52949219 21.87140625 23.05898438 22.3203125 22.57421875 C29.01972172 15.57029093 34.41076733 13.54958053 44 13 C44.495 13.99 44.495 13.99 45 15 C43.95199219 16.53720703 43.95199219 16.53720703 42.8828125 18.10546875 C41.96329509 19.46597921 41.04403793 20.8266656 40.125 22.1875 C39.66480469 22.86103516 39.20460938 23.53457031 38.73046875 24.22851562 C34.25060649 30.4775666 34.25060649 30.4775666 33.375 37.8125 C33.684375 38.8953125 33.684375 38.8953125 34 40 C39.27405053 39.58634898 42.17729898 38.71026864 46 35 C46.495 34.01 46.495 34.01 47 33 C47.66 33 48.32 33 49 33 C49.66 31.68 50.32 30.36 51 29 C51.66 29 52.32 29 53 29 C51.56869712 43.02676827 49.56507402 59.9786608 39.359375 70.5 C37.34255842 72.72545278 36.19824503 75.27066409 35 78 C31.37 78 27.74 78 24 78 C24 77.34 24 76.68 24 76 C20.99757103 75.46751794 18.05289298 75.03202335 15 75 C13.64664105 75.97272675 12.31337396 76.9739266 11 78 C6.93252786 78.59949683 3.27030343 78.87106521 -0.1875 76.5 C-0.785625 76.005 -1.38375 75.51 -2 75 C-5.04230823 74.49989476 -5.04230823 74.49989476 -8 75 C-8.65742188 75.74830078 -8.65742188 75.74830078 -9.328125 76.51171875 C-11.73911963 78.65795462 -13.52279499 78.29919547 -16.6875 78.1875 C-17.68136719 78.16042969 -18.67523438 78.13335937 -19.69921875 78.10546875 C-20.45847656 78.07066406 -21.21773437 78.03585938 -22 78 C-22 77.34 -22 76.68 -22 76 C-23.0209375 75.690625 -23.0209375 75.690625 -24.0625 75.375 C-29.10503685 73.0146636 -32.82908286 69.73748995 -35.9375 65.125 C-37.2814473 61.17221383 -37.21506719 58.1579657 -37 54 C-35.68 54.33 -34.36 54.66 -33 55 C-33 55.66 -33 56.32 -33 57 C-31.02 57 -29.04 57 -27 57 C-27.92129111 52.41522187 -28.93154387 48.09156127 -30.6875 43.75 C-33.1140316 36.72907099 -32.32051832 28.48811258 -29.4375 21.6875 C-28.963125 20.800625 -28.48875 19.91375 -28 19 C-27.34 19 -26.68 19 -26 19 C-25.69707031 19.67546875 -25.39414063 20.3509375 -25.08203125 21.046875 C-22.705847 26.10631963 -20.8849217 29.92947779 -16 33 C-16.2165625 32.45472656 -16.433125 31.90945312 -16.65625 31.34765625 C-20.07762133 22.08144223 -19.62779418 15.13426749 -16 6 C-15.34 6 -14.68 6 -14 6 C-14 6.66 -14 7.32 -14 8 C-13.34 8 -12.68 8 -12 8 C-8 13.41176471 -8 13.41176471 -8 16 C-7.01 16.33 -6.02 16.66 -5 17 C-5 17.66 -5 18.32 -5 19 C-2.69 19.66 -0.38 20.32 2 21 C2.22424141 13.63740707 1.90120099 7.12950371 0 0 Z " fill="#090909" transform="translate(242,12)"/>
<path d="M0 0 C3.3 0 6.6 0 10 0 C10.33 1.98 10.66 3.96 11 6 C11.66 6 12.32 6 13 6 C13 6.66 13 7.32 13 8 C16.1186709 8.7252723 18.52259901 9.08881879 21.6875 8.5 C25.10405486 6.2838563 25.66274328 3.80062437 27 0 C28.66611905 -0.042721 30.33382885 -0.04063832 32 0 C33 1 33 1 33.0625 3.5625 C33.041875 4.366875 33.02125 5.17125 33 6 C33.66 6 34.32 6 35 6 C35 6.66 35 7.32 35 8 C38.1186709 8.7252723 40.52259901 9.08881879 43.6875 8.5 C47.10405486 6.2838563 47.66274328 3.80062437 49 0 C50.64574566 -0.02688151 52.29161413 -0.04634123 53.9375 -0.0625 C55.31228516 -0.07990234 55.31228516 -0.07990234 56.71484375 -0.09765625 C59 0 59 0 60 1 C60.25136082 9.88740041 56.82556839 16.76164741 52 24 C51.34 24 50.68 24 50 24 C50 24.66 50 25.32 50 26 C48.64453125 27.21875 48.64453125 27.21875 46.8125 28.5 C46.22082031 28.9228125 45.62914062 29.345625 45.01953125 29.78125 C40.14888529 32.72059534 35.82221716 33.38751281 30.1875 33.375 C29.47625977 33.37411377 28.76501953 33.37322754 28.03222656 33.37231445 C22.22688369 33.24122177 18.77000065 32.21057736 14 29 C13.175 28.46375 12.35 27.9275 11.5 27.375 C10.7575 26.694375 10.7575 26.694375 10 26 C10 25.34 10 24.68 10 24 C9.34 24 8.68 24 8 24 C2.46399596 16.65877725 -0.46311801 9.26236022 0 0 Z " fill="#0B0B0B" transform="translate(219,94)"/>
<path d="M0 0 C2.76391436 1.45873258 3.80135382 2.64054501 5.3125 5.375 C6.13088721 8.49975117 6.13561193 9.97170151 5 13 C2.32447859 16.54113128 0.90769952 17.8379108 -3.5 18.625 C-7.95850936 17.82883761 -9.40783917 16.69186542 -12 13 C-12.50951861 8.85106275 -12.54666957 5.43800392 -10 2 C-6.7800434 -0.299969 -3.87718692 -0.40387364 0 0 Z " fill="#1E1E1E" transform="translate(140,102)"/>
<path d="M0 0 C3.0625 0.25 3.0625 0.25 6.0625 2.25 C6.9375 4.0625 6.9375 4.0625 7.0625 6.25 C5.91463059 8.49356294 4.8529233 10.4595767 3.0625 12.25 C-0.20577279 12.69165849 -1.55865276 12.50921127 -4.3125 10.625 C-5.9375 8.25 -5.9375 8.25 -5.8125 5.125 C-4.65170756 1.3109677 -4.03477888 0.34338544 0 0 Z " fill="#292929" transform="translate(115.9375,94.75)"/>
<path d="M0 0 C1.7325 0.1546875 1.7325 0.1546875 3.5 0.3125 C5.5 3.3125 5.5 3.3125 5.3125 6.875 C4.5 10.3125 4.5 10.3125 1.5 12.3125 C-1.26653462 12.1050099 -3.03071623 11.60971306 -5.375 10.125 C-6.5 8.3125 -6.5 8.3125 -6.3125 5.25 C-5.13637491 0.99785545 -4.43364454 0.39586112 0 0 Z " fill="#2D2D2D" transform="translate(117.5,120.6875)"/>
<path d="M0 0 C0.33 0 0.66 0 1 0 C1.33 2.64 1.66 5.28 2 8 C2.45890625 7.50628906 2.9178125 7.01257812 3.390625 6.50390625 C4.00421875 5.86324219 4.6178125 5.22257812 5.25 4.5625 C5.85328125 3.92441406 6.4565625 3.28632813 7.078125 2.62890625 C9.10048016 0.91483694 10.41270605 0.40641122 13 0 C9.64361774 4.24483639 6.32537896 7.73193589 2 11 C1.34 11 0.68 11 0 11 C0 7.37 0 3.74 0 0 Z " fill="#4C4C4C" transform="translate(261,28)"/>
</svg>
